# xmcd
# Track frame offsets:
# 150
# 17593
# 28518
# 60060
# 69338
# 87280
# 104268
# 118778
# 135465
# 147840
# 164883
# 178608
# 187848
# 202175
#
# Disc length: 2897 seconds
# Revision: 0
# Processed by: cddbd v1.5.2PL0 Copyright (c) Steve Scherf et al.
# Submitted via: VisiTrax 2.10.3.257 - For more info visit www.synapsa.com
#
DISCID=ba0b4f0e
DTITLE=Tottas Bluesband - Goin' back to Memphis
DYEAR=1989
DGENRE=Blues
TTITLE0=Goin' back to Memphis
TTITLE1=Just like I treat you
TTITLE2=I'm going down
TTITLE3=Saturday night boogie woogie man
TTITLE4=Just a feeling
TTITLE5=Bottom of the sea
TTITLE6=My love will never fie
TTITLE7=Stranger blues
TTITLE8=Chicago bound
TTITLE9=One way out
TTITLE10=Going back to the country
TTITLE11=She turns me on
TTITLE12=Must be love
TTITLE13=Last time
EXTD=
EXTT0=
EXTT1=
EXTT2=
EXTT3=
EXTT4=
EXTT5=
EXTT6=
EXTT7=
EXTT8=
EXTT9=
EXTT10=
EXTT11=
EXTT12=
EXTT13=
PLAYORDER=
